PathFileType  4	(X/Y/Z) C:\Users\wagnerel85475\Documents\Thesis\opencap-core\Data\3375ffbc-daeb-4a43-b4f7-ac9899cd4c71\MarkerData\PreAugmentation
DataRate	CameraRate	NumFrames	NumMarkers	Units	OrigDataRate	OrigDataStartFrame	OrigNumFrames
60.0	60.0	17	20	m	60.0	1	423
Frame#	Time	Neck			RShoulder			RElbow			RWrist			LShoulder			LElbow			LWrist			midHip			RHip			RKnee			RAnkle			LHip			LKnee			LAnkle			LBigToe			LSmallToe			LHeel			RBigToe			RSmallToe			RHeel			
		X1	Y1	Z1	X2	Y2	Z2	X3	Y3	Z3	X4	Y4	Z4	X5	Y5	Z5	X6	Y6	Z6	X7	Y7	Z7	X8	Y8	Z8	X9	Y9	Z9	X10	Y10	Z10	X11	Y11	Z11	X12	Y12	Z12	X13	Y13	Z13	X14	Y14	Z14	X15	Y15	Z15	X16	Y16	Z16	X17	Y17	Z17	X18	Y18	Z18	X19	Y19	Z19	X20	Y20	Z20	

1	0.0000000	0.2513600	1.8406100	-0.1283800	0.2568100	1.8048400	0.0557100	0.2018800	1.5099000	0.1158500	0.2711200	1.2205900	0.1535500	0.2395100	1.8756100	-0.2966200	0.3930700	2.1119200	-0.4853400	0.4566400	2.3894700	-0.4701700	0.2821700	1.2651800	-0.1332900	0.2948100	1.2610300	-0.0191100	0.1964400	0.7630000	-0.0421500	0.1848400	0.2707500	-0.0308800	0.3088800	1.2701600	-0.2523600	0.2312500	0.7789600	-0.2128500	0.2006700	0.2834100	-0.2178600	0.3760300	0.1973300	-0.2401500	0.3172400	0.2032300	-0.2806300	0.1181100	0.2269200	-0.1943500	0.4148400	0.2045300	-0.0157000	0.3646900	0.2052800	0.0266700	0.1505800	0.2237100	-0.0525600
2	0.0166667	0.2520700	1.8405600	-0.1284700	0.2571900	1.8048400	0.0555200	0.2024800	1.5131800	0.1156700	0.2810300	1.2207200	0.1489100	0.2403700	1.8798000	-0.2966100	0.3815900	2.1142000	-0.4810300	0.4558500	2.3978400	-0.4623600	0.2930200	1.2690900	-0.1294100	0.2948700	1.2655900	-0.0192100	0.2084100	0.7644000	-0.0384700	0.1849200	0.2742300	-0.0312500	0.3089800	1.2703300	-0.2523800	0.2311400	0.7757400	-0.2126200	0.2006700	0.2834300	-0.2178500	0.3761100	0.1973300	-0.2400600	0.3169200	0.2031800	-0.2804800	0.1187800	0.2311900	-0.1949200	0.4146500	0.2045300	-0.0157400	0.3645800	0.2053100	0.0267200	0.1508200	0.2238200	-0.0524500
3	0.0333333	0.2511700	1.8407400	-0.1282900	0.2567400	1.8048700	0.0557200	0.2020000	1.5098600	0.1157800	0.2811100	1.2239000	0.1485300	0.2286500	1.8851800	-0.2925500	0.3505600	2.1240800	-0.4697100	0.4558200	2.4059800	-0.4621400	0.2821800	1.2652200	-0.1333100	0.2948700	1.2610700	-0.0191600	0.1963400	0.7631400	-0.0421300	0.1848600	0.2744400	-0.0312900	0.3089000	1.2701300	-0.2523800	0.2313900	0.7755000	-0.2126800	0.2006300	0.2833500	-0.2178600	0.3759700	0.1972800	-0.2401100	0.3171700	0.2032000	-0.2806100	0.1180400	0.2268800	-0.1943500	0.4148000	0.2045400	-0.0157200	0.3646600	0.2053300	0.0266600	0.1506100	0.2237400	-0.0525700
4	0.0500000	0.2633000	1.8393000	-0.1244300	0.2572800	1.8048700	0.0554800	0.2024700	1.5131600	0.1156900	0.2812500	1.2203800	0.1487500	0.2292200	1.8859100	-0.2927700	0.3591300	2.1300900	-0.4646900	0.4455400	2.4150400	-0.4587200	0.2819000	1.2690100	-0.1334400	0.2950300	1.2655400	-0.0193100	0.1971300	0.7632100	-0.0421300	0.1849100	0.2742500	-0.0312500	0.3089300	1.2702200	-0.2524400	0.2309400	0.7792600	-0.2128100	0.2007000	0.2833800	-0.2178500	0.3760100	0.1973600	-0.2400600	0.3168800	0.2031900	-0.2804900	0.1190800	0.2233400	-0.1948400	0.4146300	0.2045400	-0.0157600	0.3645400	0.2053500	0.0267300	0.1508400	0.2238000	-0.0524400
5	0.0666667	0.2508500	1.8447800	-0.1286700	0.2573000	1.8001200	0.0559200	0.2024200	1.5134500	0.1158000	0.2812000	1.2202900	0.1484700	0.2291000	1.8893000	-0.2922700	0.3596000	2.1376200	-0.4568800	0.4153100	2.4267800	-0.4470000	0.2818700	1.2691700	-0.1334400	0.2945800	1.2655600	-0.0192600	0.2072000	0.7642900	-0.0469200	0.1849100	0.2744400	-0.0312900	0.3088800	1.2701300	-0.2524500	0.2311900	0.7789900	-0.2128600	0.2006700	0.2833900	-0.2178700	0.3758900	0.1972600	-0.2401000	0.3171700	0.2032000	-0.2806100	0.1292200	0.2293700	-0.1987000	0.4149200	0.2045800	-0.0157600	0.3647700	0.2054000	0.0266100	0.1506400	0.2236900	-0.0525800
6	0.0833333	0.2516900	1.8446100	-0.1288200	0.2575700	1.8000400	0.0557200	0.1903200	1.5137600	0.1122700	0.2811200	1.2204700	0.1486700	0.2406700	1.8918400	-0.2963900	0.3688000	2.1470100	-0.4514800	0.3938000	2.4429100	-0.4389100	0.2818300	1.2690300	-0.1334700	0.2948100	1.2655600	-0.0192700	0.2085000	0.7642400	-0.0384400	0.1846500	0.2784200	-0.0308900	0.3089900	1.2702000	-0.2524700	0.2310500	0.7792900	-0.2127900	0.2118000	0.2857900	-0.2137200	0.3760500	0.1973300	-0.2400700	0.3168300	0.2031900	-0.2804900	0.1306500	0.2338400	-0.1907200	0.4035900	0.2020500	-0.0194400	0.3643600	0.2087400	0.0262100	0.1506100	0.2242800	-0.0524300
7	0.1000000	0.2610900	1.8436600	-0.1330100	0.2568100	1.8048600	0.0555900	0.1902000	1.5141000	0.1123500	0.2811300	1.2204100	0.1483600	0.2399200	1.8960500	-0.2964600	0.3696200	2.1548100	-0.4517000	0.3839100	2.4451600	-0.4351700	0.2822300	1.2652600	-0.1333700	0.2947800	1.2689100	-0.0192800	0.1963100	0.7630900	-0.0421000	0.1851300	0.2751600	-0.0305700	0.3093700	1.2659800	-0.2523700	0.2313300	0.7790100	-0.2128200	0.2117600	0.2858100	-0.2137500	0.3758300	0.1973300	-0.2401300	0.3170400	0.2032000	-0.2806300	0.1295200	0.2337500	-0.1905400	0.4037700	0.2020400	-0.0193900	0.3646000	0.2053700	0.0265700	0.1504000	0.2241300	-0.0525700
8	0.1166667	0.2516500	1.8447700	-0.1288800	0.2572600	1.8047800	0.0553700	0.1903500	1.5139000	0.1121500	0.2813200	1.2203500	0.1485400	0.2400500	1.8963900	-0.2966300	0.3676200	2.1586300	-0.4435700	0.3832500	2.4485300	-0.4346600	0.2821800	1.2651900	-0.1334100	0.2948900	1.2656100	-0.0192700	0.2083400	0.7642200	-0.0384100	0.1851200	0.2749500	-0.0305300	0.3093600	1.2661400	-0.2524000	0.2311800	0.7792800	-0.2128300	0.2117200	0.2858500	-0.2137000	0.3760500	0.1974700	-0.2400700	0.3061400	0.2006200	-0.2763400	0.1305900	0.2338500	-0.1907200	0.4034900	0.2020700	-0.0194400	0.3644500	0.2053300	0.0266400	0.1488800	0.2283000	-0.0518300
9	0.1333333	0.2610500	1.8437200	-0.1330300	0.2568400	1.8048500	0.0555400	0.1901600	1.5141700	0.1122800	0.2907200	1.2205200	0.1435600	0.2400600	1.8995900	-0.2961400	0.3683500	2.1662300	-0.4438400	0.3832500	2.4516100	-0.4339200	0.2821700	1.2652300	-0.1333400	0.2944900	1.2655400	-0.0192100	0.2075400	0.7641200	-0.0384500	0.1851100	0.2751000	-0.0305700	0.3093700	1.2659500	-0.2523700	0.2314400	0.7789900	-0.2128700	0.2116600	0.2857400	-0.2137200	0.3759700	0.1973900	-0.2401000	0.3171300	0.2032200	-0.2805800	0.1293800	0.2337000	-0.1905700	0.4036800	0.2020300	-0.0193600	0.3645900	0.2052500	0.0265800	0.1503100	0.2240800	-0.0525700
10	0.1500000	0.2621300	1.8471000	-0.1329600	0.2572700	1.8048700	0.0552900	0.1903900	1.5139300	0.1121100	0.2812600	1.2206300	0.1485300	0.2405800	1.8999700	-0.2964100	0.3764900	2.1684400	-0.4394400	0.3732700	2.4544300	-0.4304100	0.2817400	1.2690500	-0.1334600	0.2845400	1.2655500	-0.0145300	0.1970600	0.7630100	-0.0420400	0.1852200	0.2749200	-0.0305300	0.3092400	1.2661400	-0.2524000	0.2312700	0.7793200	-0.2128600	0.2117100	0.2856900	-0.2137100	0.3861400	0.1997600	-0.2360300	0.3168800	0.2032200	-0.2804200	0.1307800	0.2302500	-0.1911800	0.3925500	0.1994500	-0.0230100	0.3644200	0.2052300	0.0266200	0.1507000	0.2241500	-0.0523800
11	0.1666667	0.2612900	1.8472600	-0.1329100	0.2568200	1.8049000	0.0554400	0.1903300	1.5141700	0.1122200	0.2811800	1.2205100	0.1482900	0.2401100	1.8996600	-0.2961600	0.3670200	2.1711000	-0.4361100	0.3729200	2.4616000	-0.4302100	0.2817300	1.2691700	-0.1333700	0.2944100	1.2655900	-0.0191600	0.2076700	0.7642800	-0.0384900	0.1851400	0.2750700	-0.0305600	0.3091700	1.2660300	-0.2523600	0.2315400	0.7790200	-0.2128500	0.2117000	0.2856700	-0.2137400	0.3859500	0.1996900	-0.2360800	0.3171900	0.2032400	-0.2805500	0.1406000	0.2325400	-0.1953400	0.3927300	0.1994400	-0.0229700	0.3645300	0.2052100	0.0265500	0.1504200	0.2240500	-0.0525100
12	0.1833333	0.2620200	1.8471100	-0.1330300	0.2572100	1.8047900	0.0552000	0.1904100	1.5139200	0.1120100	0.2909100	1.2208100	0.1437800	0.2405200	1.8999600	-0.2963900	0.3662900	2.1746000	-0.4352800	0.3725200	2.4620100	-0.4301100	0.2818200	1.2692000	-0.1335000	0.2946600	1.2701900	-0.0192900	0.1971300	0.7630500	-0.0420800	0.1852200	0.2749300	-0.0305500	0.3092400	1.2662100	-0.2524200	0.2312400	0.7793100	-0.2128700	0.2117500	0.2857500	-0.2137100	0.3760900	0.1974700	-0.2400800	0.3167300	0.2032000	-0.2804600	0.1418100	0.2326800	-0.1954900	0.3925500	0.1994600	-0.0230100	0.3644100	0.2052600	0.0266300	0.1507100	0.2242600	-0.0523800
13	0.2000000	0.2612500	1.8473200	-0.1329700	0.2568700	1.8049000	0.0553600	0.1900400	1.5142200	0.1120800	0.2910100	1.2208400	0.1434700	0.2403700	1.9031100	-0.2959000	0.3670500	2.1748300	-0.4355000	0.3720100	2.4659200	-0.4305800	0.2816500	1.2773200	-0.1334600	0.2941600	1.2781800	-0.0192800	0.2184600	0.7656800	-0.0432100	0.1848500	0.2744900	-0.0312900	0.3085100	1.2743800	-0.2525700	0.2315600	0.7826600	-0.2131200	0.1998400	0.2788200	-0.2180900	0.3859900	0.1995900	-0.2360300	0.3065600	0.2006100	-0.2764400	0.1176200	0.2273200	-0.1952100	0.4037500	0.2019800	-0.0193400	0.3646300	0.2052600	0.0265600	0.1505600	0.2238800	-0.0525900
14	0.2166667	0.2621300	1.8471900	-0.1331300	0.2573400	1.8050100	0.0551400	0.1900800	1.5139900	0.1119800	0.2910900	1.2209000	0.1437200	0.2409300	1.9034800	-0.2962200	0.3662900	2.1755800	-0.4349300	0.3709100	2.4670700	-0.4226200	0.2817100	1.2771700	-0.1335700	0.2948600	1.2737300	-0.0193000	0.2194600	0.7656100	-0.0431400	0.1848700	0.2743600	-0.0312400	0.3088400	1.2704100	-0.2525100	0.2312900	0.7828500	-0.2131000	0.2004700	0.2833500	-0.2178300	0.3759100	0.1976000	-0.2401400	0.3165900	0.2031600	-0.2805000	0.1189100	0.2275700	-0.1952900	0.4034000	0.2019900	-0.0194200	0.3643500	0.2052400	0.0266400	0.1508200	0.2239900	-0.0524000
15	0.2333333	0.2612700	1.8473100	-0.1329800	0.2569600	1.8050500	0.0553600	0.1899500	1.5142700	0.1121000	0.2911800	1.2207400	0.1434600	0.2404300	1.9030900	-0.2959000	0.3570200	2.1781900	-0.4315700	0.3611800	2.4728100	-0.4182600	0.2815700	1.2772700	-0.1334200	0.2841200	1.2736600	-0.0145600	0.2186700	0.7656300	-0.0431900	0.1848100	0.2745100	-0.0312700	0.3087600	1.2702800	-0.2524600	0.2315200	0.7825700	-0.2131100	0.1997900	0.2789500	-0.2180800	0.3757700	0.1974200	-0.2401700	0.3169700	0.2032000	-0.2806500	0.1177800	0.2274000	-0.1951200	0.4036400	0.2019900	-0.0193700	0.3645100	0.2052200	0.0265500	0.1526900	0.2277100	-0.0532800
16	0.2500000	0.2508500	1.8485100	-0.1371200	0.2573700	1.8050200	0.0551100	0.1900800	1.5140300	0.1119600	0.2914500	1.2207700	0.1436900	0.2403600	1.9001200	-0.2964200	0.3557800	2.1829800	-0.4314400	0.3501800	2.4728300	-0.4148800	0.2817300	1.2772000	-0.1335800	0.2845200	1.2736900	-0.0145700	0.2085500	0.7641800	-0.0383800	0.1848900	0.2743900	-0.0312600	0.3089900	1.2703800	-0.2525600	0.2312500	0.7792200	-0.2129000	0.1998700	0.2789800	-0.2180700	0.3760100	0.1975000	-0.2401600	0.3166200	0.2031400	-0.2805200	0.1189400	0.2275200	-0.1953000	0.4032700	0.2019500	-0.0193800	0.3642600	0.2051700	0.0266800	0.1529900	0.2280600	-0.0531200
17	0.2666667	0.2501000	1.8486800	-0.1370500	0.2570600	1.8052000	0.0552800	0.1899600	1.5143300	0.1120800	0.2914000	1.2206400	0.1434400	0.2405100	1.9031400	-0.2959400	0.3567600	2.1840900	-0.4315700	0.3505700	2.4757900	-0.4141800	0.2817200	1.2772400	-0.1334400	0.2943600	1.2737400	-0.0192200	0.2185900	0.7654900	-0.0432000	0.1848500	0.2745600	-0.0312900	0.3089500	1.2702100	-0.2525000	0.2313700	0.7789200	-0.2129500	0.1998300	0.2788500	-0.2181100	0.3757600	0.1972800	-0.2401700	0.3169900	0.2031500	-0.2806800	0.1178100	0.2273000	-0.1951600	0.4036600	0.2019500	-0.0193300	0.3645300	0.2051700	0.0265700	0.1526600	0.2279400	-0.0532600
